<svg version="1" xmlns="http://www.w3.org/2000/svg" width="933.333" height="933.333" viewBox="0 0 700.000000 700.000000"><path d="M333.8.5c-.1.1-3 .6-6.3.9-11.4 1.1-28.3 5-40 9.2-3.8 1.4-7.9 2.8-9 3.2-1.1.3-6.5 2.8-12 5.5-26.3 13.2-45 27.9-63.3 50-7.1 8.6-14.2 18.2-14.2 19.4 0 .3-.7 1.4-1.5 2.3-5.2 5.7-20.7 42.3-22.9 54-.2 1.4-.9 4.6-1.5 7.2-1.8 8-3.1 18.7-3.7 30.3-.6 13.1-1.6 16.6-5.4 19.9-8.6 7.2-20.3 4.9-24.8-4.7-1.7-3.5-2-5.9-1.7-13.7 1-30.2 7.3-56.9 20.2-85.3 5.1-11.1 5.6-15.4 2.7-21.2-2.2-4.6-8.2-8.5-13.2-8.5-7.8 0-31.9 8.8-47.4 17.3C75.7 94.1 65.1 102.1 53 114 24.5 142 9 172.2 1.4 214.5c-1.5 8.8-1.1 39.7.7 50.8 7.1 42.6 26.8 77.9 59.3 106.1 6.9 6 22.7 17 31.4 21.7l2.9 1.7v66.8l-.1 66.9 2.4 4.3c1.6 2.8 3.7 4.9 6.5 6.2 4.1 2 6.2 2 245.3 2 209.5 0 241.7-.2 244.8-1.5 3.9-1.6 5-2.6 7.9-7 1.9-2.9 2-5.1 2-70.5v-67.4l3.5-1.9c32.4-18 59.1-46 74.3-77.8 6.6-13.9 12-29.7 14.1-41.4.3-1.7.8-4.4 1.2-6 2.1-11.1 2.7-44.1 1-51.5-.3-1.4-.9-4.5-1.2-7-2.2-18-13.6-47.3-25-64.4-5.9-8.9-6.7-9.9-13-17.6-24.2-29.4-57.8-50.1-95.5-58.9-21.1-4.9-43.4-5.7-64.6-2.3-2.9.5-5.3.6-5.3.2 0-1-17.7-18.2-24.5-23.8-25.5-21.1-59.7-35.7-95-40.7-4.4-.7-40.1-1.5-40.7-1zM181.4 319.9c6.8 3 9 6.8 10 18.1 1.2 12.5 9.7 31.6 24.9 55.5.6 1 5.3 7.5 10.2 14.3 10.3 14.2 11.5 16.3 11.9 20 1 9.4-6.5 17.6-16.1 17.4-7.1-.2-9.1-1.7-19.1-15-12.9-17-23.2-33.7-31.2-50.7-11.6-24.4-15.5-43.2-10.8-52.5 4-7.8 12.2-10.7 20.2-7.1zm176.7.7c2 1.1 4.3 3.8 5.7 6.4l2.2 4.5-.2 51.6-.3 51.5-2.5 3.7c-6.9 10.1-21.4 9.1-27-1.9-1.9-3.6-2-6.2-2-54.4 0-50.5 0-50.6 2.3-55 4.1-8.2 13.8-11 21.8-6.4zm174.1-.4c6.1 2.9 8.3 7.1 8.3 15.3-.1 3.8-.4 9-.9 11.5-2.5 14-13.3 38.6-25.7 58.5-9.3 14.8-25.2 35.7-28.8 37.8-1.8 1.1-5.2 1.8-8.2 1.9-13.4.1-20.3-16.4-11.2-26.9 1.4-1.5 5.6-7.1 9.3-12.3 18.6-26 31.8-52.2 33.5-66.6 1.5-13.2 3.2-16.4 9.9-19.5 4.9-2.2 8.9-2.2 13.8.3zM109 573.2c-5.5.9-8.2 2.8-11.1 7.5-2.3 3.7-2.4 4.3-2.4 30.8 0 14.8.3 29.5.7 32.5 2.6 17.6 12.3 33.6 26.1 43.3 6.6 4.6 14.7 9.1 14.7 8.1 0-.4.6-.2 1.3.4.7.6 4.1 1.7 7.7 2.6 5.7 1.3 29.9 1.5 203.5 1.5 160.4 0 198.1-.2 203-1.3 23.5-5.2 42.1-21.8 48.8-43.6 2.8-9.3 3.3-15.6 3.2-43.5-.1-28.6-.4-30.5-5.1-34.6-5-4.4 5.5-4.2-246.5-4.3-131.9-.1-241.6.2-243.9.6z"/></svg>